# xmcd CD database file
#
# Track frame offsets:
#	225
#	13588
#	29416
#	55882
#	71606
#	94483
#	107055
#
# Disc length: 1708 seconds
#
# Revision: 0
# Processed by: cddbd v1.5.2PL0 Copyright (c) Steve Scherf et al.
# Submitted via: CDex 1.77
#
DISCID=5c06a907
DTITLE=Jean-Philippe VANBESELAERE - Didier LOCKWOOD - Suite concertante pour violon et orchestre
DYEAR=2010
DGENRE=Jazz
TTITLE0=01
TTITLE1=02
TTITLE2=03
TTITLE3=04
TTITLE4=05
TTITLE5=06
TTITLE6=07
EXTD=YEAR: 2010
EXTT0=
EXTT1=
EXTT2=
EXTT3=
EXTT4=
EXTT5=
EXTT6=
PLAYORDER=
